<?xml version="1.0" encoding="UTF-8"?>
<svg xmlns="http://www.w3.org/2000/svg" xmlns:xlink="http://www.w3.org/1999/xlink" width="48px" height="41px" viewBox="0 0 47 41" version="1.1">
<defs>
<linearGradient id="linear0" gradientUnits="userSpaceOnUse" x1="0" y1="15.9" x2="37.299999" y2="15.9" gradientTransform="matrix(1.260054,0,0,1.270945,0,0.291974)">
<stop offset="0" style="stop-color:rgb(20.392157%,61.960784%,96.470588%);stop-opacity:1;"/>
<stop offset="1" style="stop-color:rgb(0%,0%,100%);stop-opacity:1;"/>
</linearGradient>
</defs>
<g id="surface1">
<path style=" stroke:none;fill-rule:nonzero;fill:url(#linear0);" d="M 34.652344 29.015625 C 31.628906 29.015625 28.601562 29.015625 25.578125 29.015625 C 23.816406 29.015625 23.183594 29.652344 23.3125 31.304688 C 23.3125 33.335938 23.3125 35.371094 23.3125 37.402344 C 23.3125 38.800781 22.808594 39.945312 21.421875 40.582031 C 20.035156 41.089844 18.648438 40.835938 17.640625 39.691406 C 12.097656 33.972656 6.550781 28.378906 1.132812 22.789062 C -0.503906 21.136719 -0.253906 19.355469 1.132812 17.832031 C 6.679688 12.367188 12.222656 6.902344 17.640625 1.4375 C 18.648438 0.417969 19.78125 -0.0898438 21.167969 0.546875 C 22.554688 1.179688 23.058594 2.199219 23.058594 3.722656 C 23.058594 5.628906 23.183594 7.410156 23.058594 9.316406 C 22.808594 11.601562 23.816406 12.113281 25.957031 11.984375 C 31.5 11.859375 36.917969 11.984375 42.464844 11.984375 C 46.242188 11.984375 46.875 12.621094 46.875 16.433594 C 46.875 19.484375 46.875 22.40625 46.875 25.457031 C 46.875 28.507812 46.117188 29.140625 43.09375 29.269531 C 40.195312 29.269531 37.296875 29.269531 34.398438 29.269531 Z M 34.652344 29.015625 "/>
</g>
</svg>
